<svg width="427" height="427" viewBox="0 0 427 427" fill="none" xmlns="http://www.w3.org/2000/svg">
<g clip-path="url(#clip0_653_78)">
<path d="M213.482 96.5542L213.519 96.594L213.482 96.6312V96.5542Z" fill="#FC306B"/>
<path d="M240.811 80.0444L213.519 98.4162L213.481 38.8419C213.481 37.5226 212.463 36.7689 211.634 37.3717C211.915 37.0422 212.276 36.7904 212.682 36.6405C213.089 36.4906 213.527 36.4477 213.954 36.5159C214.382 36.584 214.785 36.7609 215.125 37.0296C215.464 37.2984 215.729 37.6499 215.894 38.0504L240.811 80.0444Z" fill="#FC306B"/>
<path d="M215.366 389.156C215.056 389.426 214.69 389.625 214.295 389.739C213.899 389.852 213.484 389.877 213.078 389.813C212.671 389.748 212.284 389.595 211.944 389.364C211.603 389.133 211.317 388.831 211.107 388.477L154.524 307.543L213.519 343.5V387.686C213.519 388.967 214.537 389.721 215.366 389.156Z" fill="#434C8F"/>
<path d="M213.481 224.619V296.008L102.767 230.114C102.124 229.693 101.579 229.138 101.169 228.487C100.76 227.837 100.494 227.106 100.391 226.344C100.391 226.194 100.354 226.043 100.354 225.892C100.317 224.861 100.607 223.845 101.183 222.989L128.852 176.924L213.481 224.619Z" fill="#0BB875" fill-opacity="0.4"/>
<path d="M213.481 296.119L213.5 343.5L154.524 307.543L102.767 232.112C101.586 230.374 100.777 228.41 100.391 226.344C100.494 227.106 100.76 227.837 101.169 228.487C101.579 229.138 102.124 229.693 102.767 230.114L213.481 296.119Z" fill="#343F71"/>
<path d="M213.519 98.4163L186.189 80.0068C186.189 80.0068 211.521 37.4473 211.634 37.3719C212.464 36.7691 213.481 37.5229 213.481 38.8421L213.519 98.4163Z" fill="#E91224"/>
<path d="M213.518 96.5931L213.482 127.655V161.291L158.935 126.147H158.896L186.188 80.0078L213.482 96.5541L213.518 96.5931Z" fill="#F86E30"/>
<path d="M272.477 307.581L215.894 388.477C215.854 388.579 215.789 388.67 215.706 388.741C215.626 388.904 215.51 389.046 215.366 389.156C214.537 389.721 213.519 388.967 213.519 387.686L213.5 343.5L272.477 307.581Z" fill="#434C8F"/>
<path d="M326.646 225.892C326.646 226.043 326.608 226.194 326.608 226.344C326.506 227.111 326.241 227.848 325.832 228.504C325.422 229.161 324.878 229.723 324.234 230.152L213.519 296.008L213.481 224.619L298.148 176.962L325.817 222.989C326.393 223.845 326.683 224.861 326.646 225.892Z" fill="#74CA38" fill-opacity="0.4"/>
<path d="M326.609 226.344C326.223 228.41 325.415 230.374 324.234 232.112L272.477 307.581L213.5 343.5L213.519 296.119L324.234 230.152C324.878 229.723 325.423 229.161 325.832 228.504C326.242 227.848 326.506 227.111 326.609 226.344Z" fill="#343F71"/>
<path d="M240.794 80.0276L268.085 126.151L213.481 161.29L213.496 96.6181L240.794 80.0276Z" fill="#F78F31"/>
<path d="M213.505 158.686V226.951L128.839 176.931L158.923 126.14L213.505 158.686Z" fill="#FEB92F"/>
<path d="M268.078 126.151L298.161 176.941L213.496 226.961V158.696L268.078 126.151Z" fill="#FFC866"/>
</g>
<defs>
<clipPath id="clip0_653_78">
<rect width="427" height="427" fill="white"/>
</clipPath>
</defs>
</svg>
